<svg xmlns="http://www.w3.org/2000/svg" xmlns:xlink="http://www.w3.org/1999/xlink"
  xmlns:serif="http://www.serif.com/" version="1.1" xml:space="preserve" style="" x="0px" y="0px"
  fill-rule="evenodd" clip-rule="evenodd" stroke-linejoin="round" stroke-miterlimit="2"
  viewBox="9.38 9.38 81.25 81.25"><g><path d="M50,9.375c-22.422,0 -40.625,18.203 -40.625,40.625c0,22.422 18.203,40.625 40.625,40.625c22.422,0 40.625,-18.203 40.625,-40.625c-0,-22.422 -18.203,-40.625 -40.625,-40.625Zm0,6.25c18.972,0 34.375,15.403 34.375,34.375c-0,18.972 -15.403,34.375 -34.375,34.375c-18.972,0 -34.375,-15.403 -34.375,-34.375c0,-18.972 15.403,-34.375 34.375,-34.375Z"></path><path d="M50,34.375c-8.624,-0 -15.625,7.001 -15.625,15.625c-0,8.624 7.001,15.625 15.625,15.625c8.624,0 15.625,-7.001 15.625,-15.625c0,-8.624 -7.001,-15.625 -15.625,-15.625Zm0,6.25c5.174,-0 9.375,4.201 9.375,9.375c0,5.174 -4.201,9.375 -9.375,9.375c-5.174,0 -9.375,-4.201 -9.375,-9.375c-0,-5.174 4.201,-9.375 9.375,-9.375Z"></path><circle cx="75" cy="50" r="4.688"></circle><circle cx="25" cy="50" r="4.688"></circle><path d="M54.688,75c-0.001,2.587 -2.101,4.688 -4.688,4.688c-2.587,-0 -4.688,-2.101 -4.688,-4.688c0,-2.587 2.101,-4.688 4.688,-4.688c2.587,0 4.688,2.101 4.688,4.688Z"></path><path d="M54.688,25c-0.001,2.587 -2.101,4.688 -4.688,4.688c-2.587,-0 -4.688,-2.101 -4.688,-4.688c0,-2.587 2.101,-4.688 4.688,-4.688c2.587,0 4.688,2.101 4.688,4.688Z"></path></g></svg>